<svg width="121" height="30" viewBox="0 0 121 30" fill="none" xmlns="http://www.w3.org/2000/svg">
<path fill-rule="evenodd" clip-rule="evenodd" d="M29.1151 5.16007C29.902 4.23426 30.5964 3.26216 31.1982 2.19749L27.6801 0.438456C27.1709 1.27168 26.5691 2.05862 25.8285 2.75297C24.9953 3.5862 23.8843 4.14168 22.727 4.32684C20.6903 4.60458 19.209 3.95652 17.1259 2.6141C14.9503 1.22539 12.4506 -0.348478 8.88625 0.0681343C6.75689 0.345877 4.76641 1.45684 3.00738 3.40103C2.22044 4.32684 1.52609 5.29894 0.924316 6.36361L4.44238 8.12264C4.95157 7.28942 5.55334 6.50248 6.29399 5.80813C7.12721 4.9749 8.23818 4.41942 9.39544 4.23426C9.67318 4.18797 9.99721 4.18797 10.275 4.18797C11.8951 4.18797 13.1912 4.83603 14.9966 5.947C17.0333 7.28942 19.6256 8.90958 23.2362 8.44668C25.4582 8.16893 27.4486 7.05797 29.1151 5.16007ZM31.1982 12.7518C30.5964 13.8164 29.902 14.7885 29.1151 15.7143C27.4486 17.6122 25.4582 18.6769 23.2362 19.001C19.6256 19.4639 17.0333 17.8437 14.9966 16.5013C13.1912 15.3903 11.8951 14.7422 10.275 14.7422C9.99721 14.7422 9.67318 14.7422 9.39544 14.7885C8.23818 14.9737 7.12721 15.5292 6.29399 16.3624C5.55334 17.0568 4.95157 17.8437 4.44238 18.6769L0.924316 16.9179C1.52609 15.8532 2.22044 14.8811 3.00738 13.9553C4.76641 12.0111 6.75689 10.9002 8.88625 10.6224C12.3312 10.1691 14.7997 11.7132 16.9871 13.0815L17.1259 13.1684C19.209 14.5108 20.6903 15.1589 22.727 14.8811C23.8843 14.696 24.9953 14.1405 25.8285 13.3072C26.5691 12.6129 27.1709 11.826 27.6801 10.9927L31.1982 12.7518ZM31.1982 23.2596C30.5964 24.3243 29.902 25.2963 29.1151 26.2222C27.4486 28.1201 25.4582 29.231 23.2362 29.5088C19.6256 29.9717 17.0333 28.3515 14.9966 27.0091C13.1912 25.8981 11.8951 25.2501 10.275 25.2501C9.99721 25.2501 9.67318 25.2501 9.39544 25.2963C8.23818 25.4815 7.12721 26.037 6.29399 26.8702C5.55334 27.5646 4.95157 28.3515 4.44238 29.1847L0.924316 27.4257C1.52609 26.361 2.22044 25.3889 3.00738 24.4631C4.76641 22.5189 6.75689 21.408 8.88625 21.1302C12.4192 20.6714 14.9061 22.2591 17.0683 23.6394L17.1259 23.6762C19.209 25.0186 20.6903 25.6667 22.727 25.3889C23.8843 25.2038 24.9953 24.6483 25.8285 23.8151C26.5691 23.1207 27.1709 22.3338 27.6801 21.5005L31.1982 23.2596ZM51.103 0.484619C51.0567 0.484619 51.0104 0.530909 51.0104 0.5772V10.1593C51.0104 10.2982 50.8716 10.437 50.6864 10.437C50.5938 10.437 50.5475 10.3907 50.5012 10.3444C48.9737 8.95574 46.9832 8.16881 44.9001 8.2151C39.2064 8.2151 35.3643 12.5201 35.3643 18.9082C35.3643 25.3888 39.1138 29.6012 44.9001 29.6012C46.9832 29.6012 49.344 28.4902 50.3624 27.4719C50.455 27.3793 50.5475 27.333 50.6864 27.333C50.8253 27.333 50.9641 27.4256 50.9641 27.5644L51.3808 29.0457L51.3884 29.0614L51.3973 29.0804C51.4295 29.1499 51.4457 29.1846 51.5659 29.1846H55.084C55.1303 29.1846 55.1766 29.1383 55.1766 29.092V0.5772C55.1766 0.530909 55.1303 0.484619 55.084 0.484619H51.103ZM45.5018 25.8518C41.8449 25.8518 39.6229 23.2132 39.6229 18.9082C39.6229 14.6032 41.8911 12.011 45.5018 12.011C48.9736 12.011 51.0103 14.5107 51.0103 18.9082C51.0103 23.2132 48.9273 25.8518 45.5018 25.8518ZM64.3418 8.21533H60.2683C60.1757 8.21533 60.1294 8.26162 60.1757 8.30791V29.0923C60.1757 29.1385 60.222 29.1848 60.2683 29.1848H64.3418C64.3881 29.1848 64.4344 29.1385 64.4344 29.0923V8.30791C64.4344 8.26162 64.3881 8.21533 64.3418 8.21533ZM60.2222 1.1792H64.4346V5.43791H60.2222V1.1792ZM77.1644 8.21533C71.1467 8.21533 67.212 12.4277 67.212 18.9084C67.212 25.2964 71.1929 29.6014 77.1644 29.6014C81.886 29.6014 85.4503 27.1943 86.3762 23.306C86.3299 23.2597 86.3299 23.2597 86.2836 23.2597H82.0249C81.9323 23.2597 81.8397 23.306 81.8397 23.3985C81.0065 25.0187 79.4326 25.8519 77.1644 25.8519C74.0166 25.8519 71.6558 23.6763 71.6558 20.76C71.6558 20.5748 71.7947 20.4823 71.9336 20.436H71.9799H86.8391C86.8853 20.436 86.8853 20.436 86.9316 20.2971C87.0242 19.8342 87.0705 19.3713 87.0705 18.9084C87.1168 12.4277 83.1821 8.21533 77.1644 8.21533ZM82.534 17.1028H71.7021C71.4706 15.5752 73.0445 12.0571 77.1643 12.0571C80.8213 12.0571 82.7192 14.6957 82.534 17.1028ZM111.928 8.21533C109.753 8.21533 107.67 9.09485 106.142 10.6687C106.05 10.7613 105.957 10.8076 105.864 10.8076C105.772 10.8076 105.679 10.7613 105.587 10.6687C104.013 8.90969 102.439 8.21533 100.032 8.21533C98.1802 8.26162 96.4212 9.04856 95.1713 10.391C95.0788 10.4836 94.9862 10.5298 94.8473 10.5298C94.7084 10.5298 94.5696 10.4373 94.5696 10.2984L94.153 8.77082C94.1067 8.63194 94.0604 8.58565 93.9678 8.58565H90.496C90.4497 8.58565 90.4034 8.63194 90.4034 8.67824V29.046C90.4034 29.0923 90.4497 29.1385 90.496 29.1385H90.5423H94.5233C94.5696 29.1385 94.6159 29.0923 94.6159 29.0923V17.7511C94.6159 14.0479 96.1434 12.0111 98.8746 12.0111C101.698 12.0111 103.133 13.9553 103.133 17.7511V29.0923C103.133 29.1848 103.18 29.1848 103.226 29.1848H107.253C107.299 29.1848 107.346 29.1385 107.346 29.0923V17.7511C107.346 15.2977 107.762 12.0111 111.558 12.0111C114.382 12.0111 115.863 13.9553 115.863 17.7511V29.0923C115.863 29.1385 115.909 29.1848 115.956 29.1848H116.002H119.983C120.029 29.1848 120.076 29.1848 120.076 29.0923V29.046V17.6586C120.029 11.4557 117.252 8.21533 111.928 8.21533Z" fill="#42318C"/>
</svg>
